<?xml version="1.0" encoding="UTF-8"?>
<!DOCTYPE svg PUBLIC "-//W3C//DTD SVG 1.1//EN" "http://www.w3.org/Graphics/SVG/1.1/DTD/svg11.dtd">
<!-- Creator: CorelDRAW -->
<svg xmlns="http://www.w3.org/2000/svg" xml:space="preserve" width="1404px" height="1985px" version="1.1" style="shape-rendering:geometricPrecision; text-rendering:geometricPrecision; image-rendering:optimizeQuality; fill-rule:evenodd; clip-rule:evenodd"
viewBox="0 0 1404 1985.66"
 xmlns:xlink="http://www.w3.org/1999/xlink"
 xmlns:xodm="http://www.corel.com/coreldraw/odm/2003">
 <defs>
  <style type="text/css">
   <![CDATA[
    .fil0 {fill:none}
    .fil1 {fill:#FEB100}
   ]]>
  </style>
 </defs>
 <g id="Layer_x0020_1">
  <metadata id="CorelCorpID_0Corel-Layer"/>
  <rect class="fil0" x="-0.24" y="0.51" width="1404" height="1985.66"/>
  <g id="_2646401270128">
   <path class="fil1" d="M697.21 984.89l18.51 0c1.09,0 1.98,0.9 1.98,2l0 20.44c0,1.09 -0.89,1.99 -1.98,1.99l-5.88 0 0.2 -16.58c-0.47,-6.39 -8.19,-4.45 -12.83,-4.89 -1.66,0.07 -1.98,-2.88 0,-2.96z"/>
   <path class="fil1" d="M687.07 977.31l18.51 0c1.09,0 1.98,0.89 1.98,1.99l0 20.44c0,1.09 -0.89,1.99 -1.98,1.99l-5.88 0 0.19 -16.58c-0.46,-6.39 -8.18,-4.45 -12.82,-4.89 -1.67,0.07 -1.99,-2.88 0,-2.95z"/>
  </g>
 </g>
</svg>
